<mxfile host="app.diagrams.net" modified="2024-06-19T12:47:34.107Z" agent="Mozilla/5.0 (Windows NT 10.0; Win64; x64) AppleWebKit/537.36 (KHTML, like Gecko) Chrome/121.0.0.0 Safari/537.36" etag="EJmwj4u5_I831XPYba14" version="24.5.5" type="device">
  <diagram name="PÃ¡gina-1" id="P7kYKVftgfBhxZAmZ3Kd">
    <mxGraphModel dx="3217" dy="1303" grid="1" gridSize="10" guides="1" tooltips="1" connect="1" arrows="1" fold="1" page="1" pageScale="1" pageWidth="827" pageHeight="1169" math="0" shadow="0">
      <root>
        <mxCell id="0" />
        <mxCell id="1" parent="0" />
        <mxCell id="ZDVPfacPR1pd1xA5gkO6-1" value="" style="rounded=0;whiteSpace=wrap;html=1;" vertex="1" parent="1">
          <mxGeometry x="130" y="320" width="400" height="80" as="geometry" />
        </mxCell>
        <mxCell id="ZDVPfacPR1pd1xA5gkO6-2" value="" style="rounded=0;whiteSpace=wrap;html=1;" vertex="1" parent="1">
          <mxGeometry x="130" y="400" width="400" height="280" as="geometry" />
        </mxCell>
        <mxCell id="ZDVPfacPR1pd1xA5gkO6-3" value="" style="rounded=0;whiteSpace=wrap;html=1;" vertex="1" parent="1">
          <mxGeometry x="130" y="680" width="400" height="280" as="geometry" />
        </mxCell>
        <mxCell id="ZDVPfacPR1pd1xA5gkO6-4" value="Text" style="text;html=1;align=center;verticalAlign=middle;whiteSpace=wrap;rounded=0;" vertex="1" parent="1">
          <mxGeometry x="168" y="430" width="330" height="30" as="geometry" />
        </mxCell>
        <mxCell id="ZDVPfacPR1pd1xA5gkO6-5" value="Text" style="text;html=1;align=center;verticalAlign=middle;whiteSpace=wrap;rounded=0;" vertex="1" parent="1">
          <mxGeometry x="168" y="704" width="330" height="30" as="geometry" />
        </mxCell>
        <mxCell id="ZDVPfacPR1pd1xA5gkO6-6" value="&lt;h1&gt;&lt;font style=&quot;font-size: 42px;&quot;&gt;Pessoa&lt;/font&gt;&lt;/h1&gt;" style="text;html=1;align=center;verticalAlign=middle;whiteSpace=wrap;rounded=0;" vertex="1" parent="1">
          <mxGeometry x="165" y="346" width="330" height="30" as="geometry" />
        </mxCell>
        <mxCell id="ZDVPfacPR1pd1xA5gkO6-8" value="" style="rounded=0;whiteSpace=wrap;html=1;" vertex="1" parent="1">
          <mxGeometry x="-290" y="1000" width="400" height="80" as="geometry" />
        </mxCell>
        <mxCell id="ZDVPfacPR1pd1xA5gkO6-9" value="" style="rounded=0;whiteSpace=wrap;html=1;" vertex="1" parent="1">
          <mxGeometry x="-290" y="1080" width="400" height="280" as="geometry" />
        </mxCell>
        <mxCell id="ZDVPfacPR1pd1xA5gkO6-10" value="" style="rounded=0;whiteSpace=wrap;html=1;" vertex="1" parent="1">
          <mxGeometry x="-290" y="1360" width="400" height="280" as="geometry" />
        </mxCell>
        <mxCell id="ZDVPfacPR1pd1xA5gkO6-11" value="Text" style="text;html=1;align=center;verticalAlign=middle;whiteSpace=wrap;rounded=0;" vertex="1" parent="1">
          <mxGeometry x="-252" y="1110" width="330" height="30" as="geometry" />
        </mxCell>
        <mxCell id="ZDVPfacPR1pd1xA5gkO6-12" value="Text" style="text;html=1;align=center;verticalAlign=middle;whiteSpace=wrap;rounded=0;" vertex="1" parent="1">
          <mxGeometry x="-252" y="1384" width="330" height="30" as="geometry" />
        </mxCell>
        <mxCell id="ZDVPfacPR1pd1xA5gkO6-13" value="&lt;h1&gt;&lt;font style=&quot;font-size: 42px;&quot;&gt;Cliente&lt;/font&gt;&lt;/h1&gt;" style="text;html=1;align=center;verticalAlign=middle;whiteSpace=wrap;rounded=0;" vertex="1" parent="1">
          <mxGeometry x="-255" y="1026" width="330" height="30" as="geometry" />
        </mxCell>
        <mxCell id="ZDVPfacPR1pd1xA5gkO6-14" value="" style="rounded=0;whiteSpace=wrap;html=1;" vertex="1" parent="1">
          <mxGeometry x="580" y="1000" width="400" height="80" as="geometry" />
        </mxCell>
        <mxCell id="ZDVPfacPR1pd1xA5gkO6-15" value="" style="rounded=0;whiteSpace=wrap;html=1;" vertex="1" parent="1">
          <mxGeometry x="580" y="1080" width="400" height="280" as="geometry" />
        </mxCell>
        <mxCell id="ZDVPfacPR1pd1xA5gkO6-16" value="" style="rounded=0;whiteSpace=wrap;html=1;" vertex="1" parent="1">
          <mxGeometry x="580" y="1360" width="400" height="280" as="geometry" />
        </mxCell>
        <mxCell id="ZDVPfacPR1pd1xA5gkO6-17" value="Text" style="text;html=1;align=center;verticalAlign=middle;whiteSpace=wrap;rounded=0;" vertex="1" parent="1">
          <mxGeometry x="618" y="1110" width="330" height="30" as="geometry" />
        </mxCell>
        <mxCell id="ZDVPfacPR1pd1xA5gkO6-18" value="Text" style="text;html=1;align=center;verticalAlign=middle;whiteSpace=wrap;rounded=0;" vertex="1" parent="1">
          <mxGeometry x="618" y="1384" width="330" height="30" as="geometry" />
        </mxCell>
        <mxCell id="ZDVPfacPR1pd1xA5gkO6-19" value="&lt;h1&gt;&lt;font style=&quot;font-size: 42px;&quot;&gt;Fornecedor&lt;/font&gt;&lt;/h1&gt;" style="text;html=1;align=center;verticalAlign=middle;whiteSpace=wrap;rounded=0;" vertex="1" parent="1">
          <mxGeometry x="615" y="1026" width="330" height="30" as="geometry" />
        </mxCell>
      </root>
    </mxGraphModel>
  </diagram>
</mxfile>
